<?xml version="1.0" encoding="iso-8859-1"?>
<svg xmlns="http://www.w3.org/2000/svg" viewBox="0 0 20 20"><linearGradient id="g" x1="50%" y1="100%" x2="50%" y2="0%"><stop offset="0" style="stop-color:#FFF33B"/><stop offset="0.0595" style="stop-color:#FFE029"/><stop offset="0.1303" style="stop-color:#FFD218"/><stop offset="0.2032" style="stop-color:#FEC90F"/><stop offset="0.2809" style="stop-color:#FDC70C"/><stop offset="0.6685" style="stop-color:#F3903F"/><stop offset="0.8876" style="stop-color:#ED683C"/><stop offset="1" style="stop-color:#E93E3A"/></linearGradient><path fill="url(#g)" d="M19.20141 10.26492H20v.47275h-.79859zM17.459 10.25062q.043.20588.10349.42183h.01726q.06038-.21594.10569-.42183.04522-.20572.10133-.41771l.28468-1.15741h-1.00931l.29331 1.15741q.06038.21197.10355.41771zM19.20141 9.26236H20v.4157h-.79859zM11.15328 9.26236h-1.1385v.4157h.98141a1.33392 1.33392 0 01.07528-.25065 1.40825 1.40825 0 01.08181-.16505zM11.07362 10.61335a1.32587 1.32587 0 01-.09412-.34843h-.96472v.47275h1.11973q-.0328-.0594-.06089-.12432zM11.36473 8.99134a1.265 1.265 0 01.43561-.271 1.43217 1.43217 0 01.14279-.04485h-.76386v.544a1.20316 1.20316 0 01.18546-.22815zM8.69282 9.83291a.35877.35877 0 00.10569-.27711.27895.27895 0 00-.11212-.25268.58243.58243 0 00-.31918-.07335h-.276v.701h.276a.46643.46643 0 00.32561-.09786zM9.18883 8.865a.74533.74533 0 01.08408.06739V8.6755h-.87119a2.09564 2.09564 0 01.42915.04279.99117.99117 0 01.35796.14671zM6.39618 9.55171a1.10676 1.10676 0 00.138.05707q.08186.02853.18545.06519l.3235.12633a1.15889 1.15889 0 01.3062.15393v-.72741l-.16388.19447a1.48552 1.48552 0 00-.29115-.14263 1.03284 1.03284 0 00-.33855-.04889.40555.40555 0 00-.20056.04277.14543.14543 0 00-.07549.13654.11716.11716 0 00.0302.07946.28144.28144 0 00.08628.06317zM15.346 10.738V9.262H14.25v2.063h.457v-.587h.639zM16.087 9.262v1.476h.639v.587h.379l-.644-2.063h-.374zM12.92241 9.26236l-.13.13856a.82891.82891 0 00-.207-.12633.64836.64836 0 00-.25017-.04482.55846.55846 0 00-.24153.053.56559.56559 0 00-.19409.15078.7269.7269 0 00-.12941.24044 1.01634 1.01634 0 00-.04741.32194.82645.82645 0 00.18114.57464.60033.60033 0 00.46581.19968.5411.5411 0 00.25232-.059.78293.78293 0 00.20487-.15286l.40542.42387a1.13276 1.13276 0 01-.4162.2934 1.26108 1.26108 0 01-.14559.04891h.83775V9.26236zM18.002 11.325h.458V9.862l-.458 1.463zM7.345 11.11871a1.09383 1.09383 0 01-.3515.18542c-.02344.00776-.04833.01392-.07294.02037h.42875v-.2097zM7.09918 8.71219a1.30316 1.30316 0 01.25016.11675V8.6755H6.9768q.0612.01581.12238.03669z"/><path fill="url(#g)" d="M5.94978 11.28171a1.56575 1.56575 0 01-.524-.28732l.42268-.48088a1.57312 1.57312 0 00.34071.18543 1.01569 1.01569 0 00.37526.07129.47168.47168 0 00.23938-.0448.12928.12928 0 00.07114-.11.15936.15936 0 00-.028-.09577.25967.25967 0 00-.07981-.06928.83223.83223 0 00-.12726-.0591q-.07551-.0285-.17035-.06522l-.34934-.13857a1.08482 1.08482 0 01-.2286-.108.826.826 0 01-.18761-.15894.73132.73132 0 01-.12726-.2099.6932.6932 0 01-.04745-.26081.68134.68134 0 01.07765-.31993.81661.81661 0 01.21781-.26083 1.07682 1.07682 0 01.33644-.17728c.0187-.00621.03841-.011.05774-.0163h-4.2953v.2569a.74612.74612 0 00-.08407-.0674.99176.99176 0 00-.358-.14672 2.09526 2.09526 0 00-.42914-.04279H0v2.649h.74186V10.485h.31052a1.60683 1.60683 0 00.42267-.055 1.09562 1.09562 0 00.358-.16712.81014.81014 0 00.09055-.0773v1.13892h2.467v-.88845h.2674l.48307.88845h.96339c-.05128-.01208-.10284-.02621-.15468-.04279zm-4.60626-1.4488a.46647.46647 0 01-.32565.09783h-.276v-.701h.276a.58225.58225 0 01.31918.07335.279.279 0 01.11216.25268.35891.35891 0 01-.10569.27714zm2.30527.90476h-.98336v-.47275h.98336zm0-1.05961h-.98336v-.4157h.98336zm.992.20376h-.25018v-.652h.25016a.68759.68759 0 01.33428.06519.24856.24856 0 01.11428.23638q0 .3505-.44856.35043zM11.78956 11.28988a1.19807 1.19807 0 01-.42268-.2527 1.13374 1.13374 0 01-.14447-.16246v.44978h.6815q-.05781-.01504-.11435-.03462zM9.18236 10.26286a1.09545 1.09545 0 01-.358.16712 1.6074 1.6074 0 01-.42268.055h-.31052v.83953h1.18175v-1.13893a.81012.81012 0 01-.09055.07728z"/></svg>
